<?xml version="1.0" encoding="utf-8"?>
<!-- Generator: Adobe Illustrator 21.1.0, SVG Export Plug-In . SVG Version: 6.00 Build 0)  -->
<svg version="1.1" id="Layer_1" xmlns="http://www.w3.org/2000/svg" xmlns:xlink="http://www.w3.org/1999/xlink" x="0px" y="0px"
	 width="100px" height="123.7px" viewBox="0 0 100 123.7" style="enable-background:new 0 0 100 123.7;" xml:space="preserve">
<path d="M16.8,123.7c0-2.7-0.2-5.3,0.1-7.8c0.1-0.7,1.2-1.5,2.1-1.9c14.7-6.2,29.4-12.2,44.1-18.3c7-2.9,14.1-5.8,21.1-8.8
	c5.1-2.2,7.8-6.9,7.5-12.4c-0.4-5.1-3.7-9.2-8.6-10.6c-0.4,2.2-0.5,4.5-1.1,6.6c-1.9,6.7-6.3,11.1-12.7,13.8
	c-19.9,8.2-39.8,16.5-59.6,24.7c-3,1.2-5.9,2.5-9.3,3.8c-0.1-1.1-0.2-1.9-0.2-2.7C0,96.8,0,83.6,0,70.3c0-1.8,0.5-2.7,2.3-3.4
	C21.6,59,40.8,51.2,60,43.2c9-3.7,10.7-15.2,3.3-21.2c-1-0.8-2.2-1.3-3.6-2.2c-0.2,6.3-2,11.5-6.3,15.5c-1.9,1.7-4.1,3.4-6.5,4.4
	C31.8,45.9,16.6,52.2,1.4,58.5c-0.3,0.1-0.6,0.2-1.2,0.4c-0.1-0.9-0.2-1.6-0.2-2.4c0-13.3,0.1-26.7-0.1-40c0-1.9,0.6-2.7,2.3-3.4
	c9.5-3.8,18.9-7.8,28.4-11.7c9.7-3.9,19.8-0.8,25.7,7.8c0.5,0.8,1.5,1.6,2.3,1.7C75,14.3,81.6,31.4,71.7,44.6
	c-0.3,0.3-1.1,1.3-1,1.1c3.7,2.8,6.7,4.2,9.1,8.4c0.4,0.7,1.5,0.8,2.3,0.9c9.7,1.7,16.6,8.7,17.7,18.2c1.1,8.8-3.9,17.8-12.5,21.4
	c-22.9,9.6-45.9,19-68.8,28.6C18.1,123.3,17.6,123.4,16.8,123.7z M25.1,93.5c4.8-2,9-3.8,13.3-5.6c9.5-3.9,18.9-7.7,28.3-11.7
	c6.6-2.8,9.3-9.9,6.5-16.4c-2.7-6.3-9.7-9-16.2-6.4c-15.5,6.4-30.9,12.8-46.3,19.1c-1.6,0.6-2.3,1.3-2.3,3.2
	c0.2,4.8,0.1,9.6,0.1,14.5c0,3.3,0,6.6,0,10.2c2.5-1,4.7-1.7,6.6-2.8c0.8-0.4,1.6-1.6,1.6-2.5c0.1-4.4,0.1-8.8-0.2-13.1
	c-0.1-2.2,0.6-3.3,2.6-4c7-2.7,13.9-5.7,20.9-8.6c6.7-2.8,13.4-5.6,20.1-8.3c2.5-1,4.7,0,5.6,2.3c0.8,2.2,0,4.2-2.4,5.4
	c-0.6,0.3-1.3,0.6-1.9,0.8C50,74.2,38.7,78.9,27.3,83.7c-0.9,0.4-2.1,1.3-2.2,2.1C24.9,88.1,25.1,90.5,25.1,93.5z M8.5,46.5
	c2.3-0.9,4.2-1.8,6.2-2.5c1.5-0.5,1.9-1.4,1.9-2.9c-0.1-4.5,0.1-8.9-0.1-13.4c-0.1-1.8,0.4-2.8,2.3-3.5c5.9-2.3,11.6-4.8,17.5-7.2
	c3.1-1.3,5.4-0.6,6.5,1.8c1.1,2.5-0.1,4.6-3.2,5.9c-4.2,1.8-8.4,3.5-12.6,5.3c-0.7,0.3-1.7,1-1.8,1.6c-0.2,2.6-0.1,5.2-0.1,7.9
	c0.7-0.2,1.1-0.3,1.4-0.4c5.8-2.4,11.7-4.7,17.4-7.3c6.2-2.7,9-9.8,6.5-16c-2.5-6.3-9.6-9.4-15.9-6.9c-8.2,3.3-16.4,6.7-24.4,10.1
	c-0.7,0.3-1.5,1.3-1.5,2C8.5,29.4,8.5,37.7,8.5,46.5z"/>
</svg>
