<svg xmlns="http://www.w3.org/2000/svg" width="53.915" height="32.2" viewBox="0 0 53.915 32.2">
  <g id="_10" data-name="10" transform="translate(-1264.714 -2306.892)">
    <g id="Group_12418" data-name="Group 12418" transform="translate(1275.954 2311.96)">
      <path id="Path_17483" data-name="Path 17483" d="M1376.774,2359.886a.691.691,0,0,1-.5-.2.7.7,0,0,1,0-.99l1.822-1.822a.7.7,0,0,1,.99.99l-1.822,1.822A.691.691,0,0,1,1376.774,2359.886Z" transform="translate(-1376.073 -2356.665)" fill="#212121" stroke="#212121" stroke-width="0.2"/>
    </g>
    <g id="Group_12419" data-name="Group 12419" transform="translate(1276.506 2312.514)">
      <path id="Path_17484" data-name="Path 17484" d="M1382.3,2368.622a.7.7,0,0,1-.5-1.193l5.037-5.038a.7.7,0,0,1,.99.989l-5.037,5.04A.693.693,0,0,1,1382.3,2368.622Z" transform="translate(-1381.595 -2362.187)" fill="#212121" stroke="#212121" stroke-width="0.2"/>
    </g>
    <g id="Group_12420" data-name="Group 12420" transform="translate(1270.944 2306.992)">
      <path id="Path_17485" data-name="Path 17485" d="M1366.763,2335.047h-40.054a.7.7,0,0,1-.7-.7V2310.39a3.4,3.4,0,0,1,3.4-3.4h34.661a3.4,3.4,0,0,1,3.4,3.4v23.955A.7.7,0,0,1,1366.763,2335.047Zm-39.353-1.4h38.652V2310.39a2,2,0,0,0-2-2h-34.661a2,2,0,0,0-1.995,2Z" transform="translate(-1326.01 -2306.99)" fill="#212121" stroke="#212121" stroke-width="0.2"/>
    </g>
    <g id="Group_12421" data-name="Group 12421" transform="translate(1264.822 2333.645)">
      <path id="Path_17486" data-name="Path 17486" d="M1311.916,2578.7h-40.485a7.541,7.541,0,0,1-6.526-4.313.7.7,0,0,1,.619-1.034h52.3a.7.7,0,0,1,.617,1.034A7.537,7.537,0,0,1,1311.916,2578.7Zm-45.123-3.944a5.848,5.848,0,0,0,4.638,2.543h40.485a5.843,5.843,0,0,0,4.636-2.543Z" transform="translate(-1264.823 -2573.352)" fill="#212121" stroke="#212121" stroke-width="0.2"/>
    </g>
  </g>
</svg>
